<?xml version="1.0" encoding="UTF-8" standalone="no"?>
<svg width="180px" height="76px" viewBox="0 0 180 76" version="1.1" xmlns="http://www.w3.org/2000/svg" xmlns:xlink="http://www.w3.org/1999/xlink" xmlns:sketch="http://www.bohemiancoding.com/sketch/ns">
    <!-- Generator: Sketch 3.4 (15575) - http://www.bohemiancoding.com/sketch -->
    <title>Soop Logo Light</title>
    <desc>Created with Sketch.</desc>
    <defs>
        <filter x="-50%" y="-50%" width="200%" height="200%" filterUnits="objectBoundingBox" id="filter-1">
            <feOffset dx="0" dy="2" in="SourceAlpha" result="shadowOffsetOuter1"></feOffset>
            <feGaussianBlur stdDeviation="0" in="shadowOffsetOuter1" result="shadowBlurOuter1"></feGaussianBlur>
            <feColorMatrix values="0 0 0 0 0.488998724   0 0 0 0 0.191796806   0 0 0 0 0.15925645  0 0 0 0.7 0" in="shadowBlurOuter1" type="matrix" result="shadowMatrixOuter1"></feColorMatrix>
            <feMerge>
                <feMergeNode in="shadowMatrixOuter1"></feMergeNode>
                <feMergeNode in="SourceGraphic"></feMergeNode>
            </feMerge>
        </filter>
        <filter x="-50%" y="-50%" width="200%" height="200%" filterUnits="objectBoundingBox" id="filter-2">
            <feOffset dx="0" dy="2" in="SourceAlpha" result="shadowOffsetOuter1"></feOffset>
            <feGaussianBlur stdDeviation="0" in="shadowOffsetOuter1" result="shadowBlurOuter1"></feGaussianBlur>
            <feColorMatrix values="0 0 0 0 0.488998724   0 0 0 0 0.191796806   0 0 0 0 0.15925645  0 0 0 0.7 0" in="shadowBlurOuter1" type="matrix" result="shadowMatrixOuter1"></feColorMatrix>
            <feMerge>
                <feMergeNode in="shadowMatrixOuter1"></feMergeNode>
                <feMergeNode in="SourceGraphic"></feMergeNode>
            </feMerge>
        </filter>
    </defs>
    <g id="Page-1" stroke="none" stroke-width="1" fill="none" fill-rule="evenodd" sketch:type="MSPage">
        <g id="Artboard-7" sketch:type="MSArtboardGroup" transform="translate(-632.000000, -105.000000)" fill="#FFFFFF">
            <g id="Soop-Logo-Light" sketch:type="MSLayerGroup" transform="translate(615.000000, 105.000000)">
                <path d="M37.789,48.664 C46.7723783,48.664 51.264,45.7123629 51.264,39.809 C51.264,37.3449877 49.5443505,35.3686741 46.105,33.88 C44.6163259,33.2639969 42.8838432,32.7121691 40.9075,32.2245 C38.9311568,31.7368309 36.9291768,31.2106695 34.9015,30.646 C32.8738232,30.0813305 30.8718432,29.4396703 28.8955,28.721 C26.9191568,28.0023297 25.1610077,27.078339 23.621,25.949 C20.2329831,23.3823205 18.539,19.9943544 18.539,15.785 C18.539,11.2676441 20.2329831,7.57168104 23.621,4.697 C27.3170185,1.56565101 32.2706356,0 38.482,0 C44.0773613,0 49.1849769,0.84699153 53.805,2.541 C55.2423405,3.0543359 55.961,4.0809923 55.961,5.621 C55.961,6.39100385 55.6915027,7.12249653 55.1525,7.8155 C54.6134973,8.50850346 54.0231699,8.855 53.3815,8.855 C52.7398301,8.855 51.854339,8.64966872 50.725,8.239 C47.3883167,7.05832743 43.5640216,6.468 39.252,6.468 C35.2993136,6.468 32.0396795,7.21232589 29.473,8.701 C26.8549869,10.2410077 25.546,12.4226525 25.546,15.246 C25.546,18.1720146 27.2399831,20.3793259 30.628,21.868 C32.1680077,22.5866703 33.9133236,23.1769977 35.864,23.639 C37.8146764,24.1010023 39.8166564,24.5886641 41.87,25.102 C43.9233436,25.6153359 45.9253236,26.2184965 47.876,26.9115 C49.8266764,27.6045035 51.5719923,28.515661 53.112,29.645 C56.5000169,32.1090123 58.194,35.6509769 58.194,40.271 C58.194,44.6856887 56.4230177,48.2789861 52.881,51.051 C49.2363151,53.8743474 44.4366964,55.286 38.482,55.286 C31.9626341,55.286 25.8540285,54.0540123 20.156,51.59 C19.5913305,51.333332 19.0908355,50.9226695 18.6545,50.358 C18.2181645,49.7933305 18,49.1131706 18,48.3175 C18,47.5218294 18.2823305,46.8031699 18.847,46.1615 C19.4116695,45.5198301 20.0661629,45.199 20.8105,45.199 C21.5548371,45.199 22.4788278,45.4428309 23.5825,45.9305 C24.6861722,46.4181691 26.4956541,46.9956633 29.011,47.663 C31.5263459,48.3303367 34.4523167,48.664 37.789,48.664 L37.789,48.664 Z M83.793,14.476 C89.7476964,14.476 94.5216487,16.3496479 98.115,20.097 C101.708351,23.8956857 103.505,28.8236364 103.505,34.881 C103.505,40.9383636 101.708351,45.8663143 98.115,49.665 C94.5216487,53.4123521 89.7476964,55.286 83.793,55.286 C77.78697,55.286 73.0130177,53.4123521 69.471,49.665 C65.8776487,45.9176479 64.081,40.9896972 64.081,34.881 C64.081,28.7723028 65.8776487,23.8443521 69.471,20.097 C73.0130177,16.3496479 77.78697,14.476 83.793,14.476 L83.793,14.476 Z M79.2885,48.125 C80.8028409,48.6383359 82.2914927,48.895 83.7545,48.895 C85.2175073,48.895 86.7061591,48.6383359 88.2205,48.125 C89.7348409,47.6116641 91.1079938,46.8160054 92.34,45.738 C95.1120139,43.2226541 96.498,39.5780239 96.498,34.804 C96.498,30.1839769 95.1120139,26.5906795 92.34,24.024 C90.0299884,21.9193228 87.1810169,20.867 83.793,20.867 C78.2489723,20.867 74.3990108,23.3566418 72.243,28.336 C71.4729961,30.1326757 71.088,32.3014873 71.088,34.8425 C71.088,37.3835127 71.4729961,39.5523244 72.243,41.349 C73.0130038,43.1456757 74.0011606,44.5958278 75.2075,45.6995 C76.4138394,46.8031722 77.7741591,47.6116641 79.2885,48.125 L79.2885,48.125 Z M129.489,14.476 C135.443696,14.476 140.217649,16.3496479 143.811,20.097 C147.404351,23.8956857 149.201,28.8236364 149.201,34.881 C149.201,40.9383636 147.404351,45.8663143 143.811,49.665 C140.217649,53.4123521 135.443696,55.286 129.489,55.286 C123.48297,55.286 118.709018,53.4123521 115.167,49.665 C111.573649,45.9176479 109.777,40.9896972 109.777,34.881 C109.777,28.7723028 111.573649,23.8443521 115.167,20.097 C118.709018,16.3496479 123.48297,14.476 129.489,14.476 L129.489,14.476 Z M124.9845,48.125 C126.498841,48.6383359 127.987493,48.895 129.4505,48.895 C130.913507,48.895 132.402159,48.6383359 133.9165,48.125 C135.430841,47.6116641 136.803994,46.8160054 138.036,45.738 C140.808014,43.2226541 142.194,39.5780239 142.194,34.804 C142.194,30.1839769 140.808014,26.5906795 138.036,24.024 C135.725988,21.9193228 132.877017,20.867 129.489,20.867 C123.944972,20.867 120.095011,23.3566418 117.939,28.336 C117.168996,30.1326757 116.784,32.3014873 116.784,34.8425 C116.784,37.3835127 117.168996,39.5523244 117.939,41.349 C118.709004,43.1456757 119.697161,44.5958278 120.9035,45.6995 C122.109839,46.8031722 123.470159,47.6116641 124.9845,48.125 L124.9845,48.125 Z M164.867,20.328 C168.665686,16.4266472 173.054642,14.476 178.034,14.476 C183.013358,14.476 187.273982,16.2469823 190.816,19.789 C194.717353,23.6903528 196.668,28.7209692 196.668,34.881 C196.668,41.143698 194.717353,46.1999808 190.816,50.05 C187.222649,53.5406841 182.949191,55.286 177.9955,55.286 C173.041809,55.286 168.665686,53.3353528 164.867,49.434 L164.867,69.069 C164.867,70.0956718 164.533337,70.9426633 163.866,71.61 C163.198663,72.2773367 162.364505,72.611 161.3635,72.611 C160.362495,72.611 159.528337,72.2773367 158.861,71.61 C158.193663,70.9426633 157.86,70.0956718 157.86,69.069 L157.86,18.326 C157.86,17.3506618 158.193663,16.5293367 158.861,15.862 C159.528337,15.1946633 160.362495,14.861 161.3635,14.861 C162.364505,14.861 163.198663,15.1946633 163.866,15.862 C164.533337,16.5293367 164.867,17.3506618 164.867,18.326 L164.867,20.328 Z M164.867,42.966 C168.357684,46.8160193 172.412977,48.741 177.033,48.741 C182.885029,48.741 186.786324,46.1230262 188.737,40.887 C189.353003,39.1416579 189.661,37.139678 189.661,34.881 C189.661,30.4663113 188.480345,27.0013459 186.119,24.486 C183.860322,22.1759885 180.831686,21.021 177.033,21.021 C172.412977,21.021 168.357684,22.9459808 164.867,26.796 L164.867,42.966 Z" id="Soop-Copy" filter="url(#filter-1)" sketch:type="MSShapeGroup"></path>
                <g id="Path-17-Copy-+-Path-17-+-Oval-1" transform="translate(0.000000, 31.000000)" filter="url(#filter-2)" sketch:type="MSShapeGroup">
                    <path d="M39,43 C60.9500975,43 59,27 59,27 C59,27 58.9999981,35 38.9999991,35 C19,35 18,27 18,27 C17.6973992,29.4208063 16.0499025,43 39,43 Z" id="Path-17-Copy"></path>
                </g>
            </g>
        </g>
    </g>
</svg>